<svg xmlns="http://www.w3.org/2000/svg" class="graphdiagram" viewBox="-721.4846198949328 -871.2023093268099 1733 1227"><g class="layer relationships"><g class="related-pair"><g class="relationship" transform="translate(412.5299999999998,-559.0699999999999) rotate(90)"><path class="relationship" d="M 40.06222807296684,-5.979690921787534 L 40.30855309649261,-3.99491789124096 A 1245.7173709456438 1245.7173709456438 0 0 1 345.7990616266551,-4.163049268596786 L 345.4328513648626,-1.1854848202333526 L 353.86130357622176,-4.179010053271133 L 346.409412062976,-9.12565668253584 L 346.0432018011835,-6.148092234172407 A 1247.7173709456438 1247.7173709456438 0 0 0 40.06222807296684,-5.979690921787534" fill="rgba(0, 0, 0, 0.3)" stroke="rgb(51, 51, 51)" stroke-width="0px"/><text class="type" text-anchor="middle" baseline-shift="30%" alignment-baseline="alphabetic" x="193.7342334488119" y="-14.479168068736726" font-size="14px" font-family="&quot;Helvetica Neue&quot;, Helvetica, Arial, sans-serif">EMPLOYER_OF</text></g><g class="relationship" transform="translate(412.5299999999998,-171.23020629882814) rotate(-90)"><path class="relationship" d="M 33.72450075352613,-5.971596530418202 L 34.015566265129024,-3.9928896628010335 A 1088.30175305352 1088.30175305352 0 0 1 339.6567739859993,-5.570857335844376 L 339.25084524231505,-2.5984472270183807 L 347.71851052409664,-5.479184055628495 L 340.3333218921396,-10.5248741838877 L 339.9273931484554,-7.552464075061706 A 1090.30175305352 1090.30175305352 0 0 0 33.72450075352613,-5.971596530418202" fill="rgba(0, 0, 0, 0.3)" stroke="rgb(51, 51, 51)" stroke-width="0px"/><text class="type" text-anchor="middle" baseline-shift="30%" alignment-baseline="alphabetic" x="192.3991195305549" y="-16.579566312919496" font-size="14px" font-family="&quot;Helvetica Neue&quot;, Helvetica, Arial, sans-serif">EMPLOYED_BY</text></g></g><g class="related-pair"><g class="relationship" transform="translate(-126.4894787597656,-559.0699999999999) rotate(0)"><path class="relationship" d="M 44.16413572751177 1 L 219.24694671182507 1 L 219.24694671182507 4 L 227.24694671182507 0 L 219.24694671182507 -4 L 219.24694671182507 -1 L 44.16413572751177 -1 Z" fill="rgba(0, 0, 0, 0.3)" stroke="rgb(51, 51, 51)" stroke-width="0px"/><text class="type" text-anchor="middle" baseline-shift="30%" alignment-baseline="alphabetic" x="131.70554121966842" y="0" font-size="14px" font-family="&quot;Helvetica Neue&quot;, Helvetica, Arial, sans-serif">SIGNED</text></g></g><g class="related-pair"><g class="relationship" transform="translate(412.5299999999998,-559.0699999999999) rotate(180)"><path class="relationship" d="M 40.49368866490828 1 L 225.5554659989343 1 L 225.5554659989343 4 L 233.5554659989343 0 L 225.5554659989343 -4 L 225.5554659989343 -1 L 40.49368866490828 -1 Z" fill="rgba(0, 0, 0, 0.3)" stroke="rgb(51, 51, 51)" stroke-width="0px"/><text class="type" text-anchor="middle" baseline-shift="30%" alignment-baseline="alphabetic" transform="rotate(180)" x="-133.0245773319213" y="0" font-size="14px" font-family="&quot;Helvetica Neue&quot;, Helvetica, Arial, sans-serif">HAS</text></g></g><g class="related-pair"><g class="relationship" transform="translate(139.86600097656247,-559.0699999999999) rotate(90)"><path class="relationship" d="M 39.10853302450297 1 L 345.3514964468346 1 L 345.3514964468346 4 L 353.3514964468346 0 L 345.3514964468346 -4 L 345.3514964468346 -1 L 39.10853302450297 -1 Z" fill="rgba(0, 0, 0, 0.3)" stroke="rgb(51, 51, 51)" stroke-width="0px"/><text class="type" text-anchor="middle" baseline-shift="30%" alignment-baseline="alphabetic" x="192.2300147356688" y="0" font-size="14px" font-family="&quot;Helvetica Neue&quot;, Helvetica, Arial, sans-serif">USED</text></g></g><g class="related-pair"><g class="relationship" transform="translate(412.5299999999998,-171.23020629882814) rotate(180)"><path class="relationship" d="M 34.23451352358738 1 L 230.1757017691 1 L 230.1757017691 4 L 238.1757017691 0 L 230.1757017691 -4 L 230.1757017691 -1 L 34.23451352358738 -1 Z" fill="rgba(0, 0, 0, 0.3)" stroke="rgb(51, 51, 51)" stroke-width="0px"/><text class="type" text-anchor="middle" baseline-shift="30%" alignment-baseline="alphabetic" transform="rotate(180)" x="-132.20510764634366" y="0" font-size="14px" font-family="&quot;Helvetica Neue&quot;, Helvetica, Arial, sans-serif">WROTE</text></g></g><g class="related-pair"><g class="relationship" transform="translate(412.5299999999998,-171.23020629882814) rotate(90)"><path class="relationship" d="M 34.23451352358738 1 L 186.89078890655395 1 L 186.89078890655395 4 L 194.89078890655395 0 L 186.89078890655395 -4 L 186.89078890655395 -1 L 34.23451352358738 -1 Z" fill="rgba(0, 0, 0, 0.3)" stroke="rgb(51, 51, 51)" stroke-width="0px"/><text class="type" text-anchor="middle" baseline-shift="30%" alignment-baseline="alphabetic" x="110.56265121507066" y="0" font-size="14px" font-family="&quot;Helvetica Neue&quot;, Helvetica, Arial, sans-serif">SPENT</text></g></g><g class="related-pair"><g class="relationship" transform="translate(-126.4894787597656,-559.0699999999999) rotate(90)"><path class="relationship" d="M 44.16413572751177 1 L 339.34610503626357 1 L 339.34610503626357 4 L 347.34610503626357 0 L 339.34610503626357 -4 L 339.34610503626357 -1 L 44.16413572751177 -1 Z" fill="rgba(0, 0, 0, 0.3)" stroke="rgb(51, 51, 51)" stroke-width="0px"/><text class="type" text-anchor="middle" baseline-shift="30%" alignment-baseline="alphabetic" x="191.75512038188765" y="0" font-size="14px" font-family="&quot;Helvetica Neue&quot;, Helvetica, Arial, sans-serif">EMPLOYED_BY</text></g></g><g class="related-pair"><g class="relationship" transform="translate(-126.4894787597656,-171.23020629882814) rotate(0)"><path class="relationship" d="M 40.49368866490828 1 L 223.86718248199077 1 L 223.86718248199077 4 L 231.86718248199077 0 L 223.86718248199077 -4 L 223.86718248199077 -1 L 40.49368866490828 -1 Z" fill="rgba(0, 0, 0, 0.3)" stroke="rgb(51, 51, 51)" stroke-width="0px"/><text class="type" text-anchor="middle" baseline-shift="30%" alignment-baseline="alphabetic" x="132.18043557344953" y="0" font-size="14px" font-family="&quot;Helvetica Neue&quot;, Helvetica, Arial, sans-serif">APPROVED</text></g></g><g class="related-pair"><g class="relationship" transform="translate(412.5299999999998,-171.23020629882814) rotate(140.9782988547152)"><path class="relationship" d="M 34.23451352358738 1 L 316.1954174529895 1 L 316.1954174529895 4 L 324.1954174529895 0 L 316.1954174529895 -4 L 316.1954174529895 -1 L 34.23451352358738 -1 Z" fill="rgba(0, 0, 0, 0.3)" stroke="rgb(51, 51, 51)" stroke-width="0px"/><text class="type" text-anchor="middle" baseline-shift="30%" alignment-baseline="alphabetic" transform="rotate(180)" x="-175.21496548828844" y="0" font-size="14px" font-family="&quot;Helvetica Neue&quot;, Helvetica, Arial, sans-serif">HAS</text></g></g><g class="related-pair"><g class="relationship" transform="translate(-126.4894787597656,-171.23020629882814) rotate(39.679290881107455)"><path class="relationship" d="M 40.49368866490828 1 L 311.3170746291976 1 L 311.3170746291976 4 L 319.3170746291976 0 L 311.3170746291976 -4 L 311.3170746291976 -1 L 40.49368866490828 -1 Z" fill="rgba(0, 0, 0, 0.3)" stroke="rgb(51, 51, 51)" stroke-width="0px"/><text class="type" text-anchor="middle" baseline-shift="30%" alignment-baseline="alphabetic" x="175.90538164705293" y="0" font-size="14px" font-family="&quot;Helvetica Neue&quot;, Helvetica, Arial, sans-serif">HAS</text></g></g></g><g class="layer nodes"><circle class="node node-id-0" r="38.66413572751177" fill="rgb(247, 247, 249)" stroke="rgba(0, 0, 0, 0.3)" stroke-width="1px" cx="-126.4894787597656" cy="-559.0699999999999"/><circle class="node node-id-1" r="33.60853302450297" fill="rgb(247, 247, 249)" stroke="rgba(0, 0, 0, 0.3)" stroke-width="1px" cx="139.86600097656247" cy="-559.0699999999999"/><circle class="node node-id-2" r="28.734513523587385" fill="rgb(247, 247, 249)" stroke="rgba(0, 0, 0, 0.3)" stroke-width="1px" cx="412.5299999999998" cy="-171.23020629882814"/><circle class="node node-id-3" r="34.99368866490828" fill="rgb(247, 247, 249)" stroke="rgba(0, 0, 0, 0.3)" stroke-width="1px" cx="412.5299999999998" cy="-559.0699999999999"/><circle class="node node-id-4" r="28.9882972543373" fill="rgb(247, 247, 249)" stroke="rgba(0, 0, 0, 0.3)" stroke-width="1px" cx="139.86600097656247" cy="-171.23020629882814"/><circle class="node node-id-5" r="20.579211093446062" fill="rgb(247, 247, 249)" stroke="rgba(0, 0, 0, 0.3)" stroke-width="1px" cx="412.5299999999998" cy="49.73979370117186"/><circle class="node node-id-6" r="34.99368866490828" fill="rgb(247, 247, 249)" stroke="rgba(0, 0, 0, 0.3)" stroke-width="1px" cx="-126.4894787597656" cy="-171.23020629882814"/><circle class="node node-id-7" r="21.265260206848925" fill="rgb(247, 247, 249)" stroke="rgba(0, 0, 0, 0.3)" stroke-width="1px" cx="139.86600097656247" cy="49.73979370117186"/><g class="caption"><text class="caption node" text-anchor="middle" alignment-baseline="central" x="-126.4894787597656" y="-559.0699999999999" fill="rgb(51, 51, 51)" font-size="14px" font-family="&quot;Helvetica Neue&quot;, Helvetica, Arial, sans-serif">Consumer</text></g><g class="caption"><text class="caption node" text-anchor="middle" alignment-baseline="central" x="139.86600097656247" y="-559.0699999999999" fill="rgb(51, 51, 51)" font-size="14px" font-family="&quot;Helvetica Neue&quot;, Helvetica, Arial, sans-serif">Contract</text></g><g class="caption"><text class="caption node" text-anchor="middle" alignment-baseline="central" x="412.5299999999998" y="-171.23020629882814" fill="rgb(51, 51, 51)" font-size="14px" font-family="&quot;Helvetica Neue&quot;, Helvetica, Arial, sans-serif">Worker</text></g><g class="caption"><text class="caption node" text-anchor="middle" alignment-baseline="central" x="412.5299999999998" y="-559.0699999999999" fill="rgb(51, 51, 51)" font-size="14px" font-family="&quot;Helvetica Neue&quot;, Helvetica, Arial, sans-serif">Producer</text></g><g class="caption"><text class="caption node" text-anchor="middle" alignment-baseline="central" x="139.86600097656247" y="-171.23020629882814" fill="rgb(51, 51, 51)" font-size="14px" font-family="&quot;Helvetica Neue&quot;, Helvetica, Arial, sans-serif">SPENT</text></g><g class="caption"><text class="caption node" text-anchor="middle" alignment-baseline="central" x="412.5299999999998" y="49.73979370117186" fill="rgb(51, 51, 51)" font-size="14px" font-family="&quot;Helvetica Neue&quot;, Helvetica, Arial, sans-serif">OFF</text></g><g class="caption"><text class="caption node" text-anchor="middle" alignment-baseline="central" x="-126.4894787597656" y="-171.23020629882814" fill="rgb(51, 51, 51)" font-size="14px" font-family="&quot;Helvetica Neue&quot;, Helvetica, Arial, sans-serif">Approver</text></g><g class="caption"><text class="caption node" text-anchor="middle" alignment-baseline="central" x="139.86600097656247" y="49.73979370117186" fill="rgb(51, 51, 51)" font-size="14px" font-family="&quot;Helvetica Neue&quot;, Helvetica, Arial, sans-serif">Role</text></g></g><g class="layer properties"><g class="speech-bubble node-speech-bubble" transform="translate(-153.82915132140624,-586.4096725616406) "><path class="speech-bubble-outline" transform="scale(-1,-1) " d="M 0 0 L 16 12 L 95.61790466308594 12 A 4 4 0 0 1 99.61790466308594 16 L 99.61790466308594 30 A 4 4 0 0 1 95.61790466308594 34 L 16 34 A 4 4 0 0 1 12 30 L 12 16 Z" fill="rgb(255, 255, 255)" stroke="rgba(0, 0, 0, 0.5)" stroke-width="1px"/><text class="speech-bubble-content property-key" x="-53.07194519042969" y="-23" alignment-baseline="central" text-anchor="end" font-size="14px" font-family="&quot;Helvetica Neue&quot;, Helvetica, Arial, sans-serif" xml:space="preserve">name: </text><text class="speech-bubble-content property-value" x="-53.07194519042969" y="-23" alignment-baseline="central" font-size="14px" font-family="&quot;Helvetica Neue&quot;, Helvetica, Arial, sans-serif">String</text></g><g class="speech-bubble node-speech-bubble" transform="translate(441.2645135235872,-171.23020629882814) "><path class="speech-bubble-outline" transform="scale(1,1) " d="M 0 0 L 12 -4 L 12 -21 A 4 4 0 0 1 16 -25 L 184.79782104492188 -25 A 4 4 0 0 1 188.79782104492188 -21 L 188.79782104492188 21 A 4 4 0 0 1 184.79782104492188 25 L 16 25 A 4 4 0 0 1 12 21 L 12 4 Z" fill="rgb(255, 255, 255)" stroke="rgba(0, 0, 0, 0.5)" stroke-width="1px"/><text class="speech-bubble-content property-key" x="98.96394348144531" y="-14" alignment-baseline="central" text-anchor="end" font-size="14px" font-family="&quot;Helvetica Neue&quot;, Helvetica, Arial, sans-serif" xml:space="preserve">email: </text><text class="speech-bubble-content property-key" x="98.96394348144531" y="0" alignment-baseline="central" text-anchor="end" font-size="14px" font-family="&quot;Helvetica Neue&quot;, Helvetica, Arial, sans-serif" xml:space="preserve">name: </text><text class="speech-bubble-content property-key" x="98.96394348144531" y="14" alignment-baseline="central" text-anchor="end" font-size="14px" font-family="&quot;Helvetica Neue&quot;, Helvetica, Arial, sans-serif" xml:space="preserve">week_hours: </text><text class="speech-bubble-content property-value" x="98.96394348144531" y="-14" alignment-baseline="central" font-size="14px" font-family="&quot;Helvetica Neue&quot;, Helvetica, Arial, sans-serif">EmailAddress</text><text class="speech-bubble-content property-value" x="98.96394348144531" y="0" alignment-baseline="central" font-size="14px" font-family="&quot;Helvetica Neue&quot;, Helvetica, Arial, sans-serif">String</text><text class="speech-bubble-content property-value" x="98.96394348144531" y="14" alignment-baseline="central" font-size="14px" font-family="&quot;Helvetica Neue&quot;, Helvetica, Arial, sans-serif">Int</text></g><g class="speech-bubble node-speech-bubble" transform="translate(437.2742745536873,-583.8142745536874) "><path class="speech-bubble-outline" transform="scale(1,-1) " d="M 0 0 L 16 12 L 95.61790466308594 12 A 4 4 0 0 1 99.61790466308594 16 L 99.61790466308594 30 A 4 4 0 0 1 95.61790466308594 34 L 16 34 A 4 4 0 0 1 12 30 L 12 16 Z" fill="rgb(255, 255, 255)" stroke="rgba(0, 0, 0, 0.5)" stroke-width="1px"/><text class="speech-bubble-content property-key" x="58.54595947265625" y="-23" alignment-baseline="central" text-anchor="end" font-size="14px" font-family="&quot;Helvetica Neue&quot;, Helvetica, Arial, sans-serif" xml:space="preserve">name: </text><text class="speech-bubble-content property-value" x="58.54595947265625" y="-23" alignment-baseline="central" font-size="14px" font-family="&quot;Helvetica Neue&quot;, Helvetica, Arial, sans-serif">String</text></g><g class="speech-bubble node-speech-bubble" transform="translate(139.86600097656247,-142.24190904449082) "><path class="speech-bubble-outline" transform="scale(1,1) " d="M 0 0 L -4 12 L -59.38093566894531 12 A 4 4 0 0 0 -63.38093566894531 16 L -63.38093566894531 58 A 4 4 0 0 0 -59.38093566894531 62 L 59.38093566894531 62 A 4 4 0 0 0 63.38093566894531 58 L 63.38093566894531 16 A 4 4 0 0 0 59.38093566894531 12 L 4 12 Z" fill="rgb(255, 255, 255)" stroke="rgba(0, 0, 0, 0.5)" stroke-width="1px"/><text class="speech-bubble-content property-key" x="7.790985107421875" y="23" alignment-baseline="central" text-anchor="end" font-size="14px" font-family="&quot;Helvetica Neue&quot;, Helvetica, Arial, sans-serif" xml:space="preserve">date: </text><text class="speech-bubble-content property-key" x="7.790985107421875" y="37" alignment-baseline="central" text-anchor="end" font-size="14px" font-family="&quot;Helvetica Neue&quot;, Helvetica, Arial, sans-serif" xml:space="preserve">spent: </text><text class="speech-bubble-content property-key" x="7.790985107421875" y="51" alignment-baseline="central" text-anchor="end" font-size="14px" font-family="&quot;Helvetica Neue&quot;, Helvetica, Arial, sans-serif" xml:space="preserve">approved: </text><text class="speech-bubble-content property-value" x="7.790985107421875" y="23" alignment-baseline="central" font-size="14px" font-family="&quot;Helvetica Neue&quot;, Helvetica, Arial, sans-serif">Date</text><text class="speech-bubble-content property-value" x="7.790985107421875" y="37" alignment-baseline="central" font-size="14px" font-family="&quot;Helvetica Neue&quot;, Helvetica, Arial, sans-serif">Int</text><text class="speech-bubble-content property-value" x="7.790985107421875" y="51" alignment-baseline="central" font-size="14px" font-family="&quot;Helvetica Neue&quot;, Helvetica, Arial, sans-serif">Boolean</text></g><g class="speech-bubble node-speech-bubble" transform="translate(412.5299999999998,70.31900479461792) "><path class="speech-bubble-outline" transform="scale(1,1) " d="M 0 0 L -4 12 L -41.51696014404297 12 A 4 4 0 0 0 -45.51696014404297 16 L -45.51696014404297 30 A 4 4 0 0 0 -41.51696014404297 34 L 41.51696014404297 34 A 4 4 0 0 0 45.51696014404297 30 L 45.51696014404297 16 A 4 4 0 0 0 41.51696014404297 12 L 4 12 Z" fill="rgb(255, 255, 255)" stroke="rgba(0, 0, 0, 0.5)" stroke-width="1px"/><text class="speech-bubble-content property-key" x="-6.502998352050781" y="23" alignment-baseline="central" text-anchor="end" font-size="14px" font-family="&quot;Helvetica Neue&quot;, Helvetica, Arial, sans-serif" xml:space="preserve">type: </text><text class="speech-bubble-content property-value" x="-6.502998352050781" y="23" alignment-baseline="central" font-size="14px" font-family="&quot;Helvetica Neue&quot;, Helvetica, Arial, sans-serif">OffType</text></g><g class="speech-bubble node-speech-bubble" transform="translate(-151.23375331345306,-146.48593174514068) "><path class="speech-bubble-outline" transform="scale(-1,1) " d="M 0 0 L 16 12 L 144.3798370361328 12 A 4 4 0 0 1 148.3798370361328 16 L 148.3798370361328 44 A 4 4 0 0 1 144.3798370361328 48 L 16 48 A 4 4 0 0 1 12 44 L 12 16 Z" fill="rgb(255, 255, 255)" stroke="rgba(0, 0, 0, 0.5)" stroke-width="1px"/><text class="speech-bubble-content property-key" x="-101.83387756347656" y="23" alignment-baseline="central" text-anchor="end" font-size="14px" font-family="&quot;Helvetica Neue&quot;, Helvetica, Arial, sans-serif" xml:space="preserve">email: </text><text class="speech-bubble-content property-key" x="-101.83387756347656" y="37" alignment-baseline="central" text-anchor="end" font-size="14px" font-family="&quot;Helvetica Neue&quot;, Helvetica, Arial, sans-serif" xml:space="preserve">name: </text><text class="speech-bubble-content property-value" x="-101.83387756347656" y="23" alignment-baseline="central" font-size="14px" font-family="&quot;Helvetica Neue&quot;, Helvetica, Arial, sans-serif">EmailAddress</text><text class="speech-bubble-content property-value" x="-101.83387756347656" y="37" alignment-baseline="central" font-size="14px" font-family="&quot;Helvetica Neue&quot;, Helvetica, Arial, sans-serif">String</text></g><g class="speech-bubble node-speech-bubble" transform="translate(139.86600097656247,71.00505390802078) "><path class="speech-bubble-outline" transform="scale(1,1) " d="M 0 0 L -4 12 L -37.20494079589844 12 A 4 4 0 0 0 -41.20494079589844 16 L -41.20494079589844 30 A 4 4 0 0 0 -37.20494079589844 34 L 37.20494079589844 34 A 4 4 0 0 0 41.20494079589844 30 L 41.20494079589844 16 A 4 4 0 0 0 37.20494079589844 12 L 4 12 Z" fill="rgb(255, 255, 255)" stroke="rgba(0, 0, 0, 0.5)" stroke-width="1px"/><text class="speech-bubble-content property-key" x="0.13299560546875" y="23" alignment-baseline="central" text-anchor="end" font-size="14px" font-family="&quot;Helvetica Neue&quot;, Helvetica, Arial, sans-serif" xml:space="preserve">label: </text><text class="speech-bubble-content property-value" x="0.13299560546875" y="23" alignment-baseline="central" font-size="14px" font-family="&quot;Helvetica Neue&quot;, Helvetica, Arial, sans-serif">String</text></g><g class="speech-bubble relationship-speech-bubble" transform="translate(5.216062459902815,-559.0699999999999) "><path class="speech-bubble-outline" transform="scale(1,1) " d="M 0 0 L -4 12 L -35.3919677734375 12 A 4 4 0 0 0 -39.3919677734375 16 L -39.3919677734375 30 A 4 4 0 0 0 -35.3919677734375 34 L 35.3919677734375 34 A 4 4 0 0 0 39.3919677734375 30 L 39.3919677734375 16 A 4 4 0 0 0 35.3919677734375 12 L 4 12 Z" fill="rgb(255, 255, 255)" stroke="rgba(0, 0, 0, 0.5)" stroke-width="1px"/><text class="speech-bubble-content property-key" x="6.0900115966796875" y="23" alignment-baseline="central" text-anchor="end" font-size="14px" font-family="&quot;Helvetica Neue&quot;, Helvetica, Arial, sans-serif" xml:space="preserve">when: </text><text class="speech-bubble-content property-value" x="6.0900115966796875" y="23" alignment-baseline="central" font-size="14px" font-family="&quot;Helvetica Neue&quot;, Helvetica, Arial, sans-serif">Date</text></g><g class="speech-bubble relationship-speech-bubble" transform="translate(279.5054226680785,-559.0699999999999) "><path class="speech-bubble-outline" transform="scale(1,1) " d="M 0 0 L -4 12 L -35.0069580078125 12 A 4 4 0 0 0 -39.0069580078125 16 L -39.0069580078125 30 A 4 4 0 0 0 -35.0069580078125 34 L 35.0069580078125 34 A 4 4 0 0 0 39.0069580078125 30 L 39.0069580078125 16 A 4 4 0 0 0 35.0069580078125 12 L 4 12 Z" fill="rgb(255, 255, 255)" stroke="rgba(0, 0, 0, 0.5)" stroke-width="1px"/><text class="speech-bubble-content property-key" x="5.7050018310546875" y="23" alignment-baseline="central" text-anchor="end" font-size="14px" font-family="&quot;Helvetica Neue&quot;, Helvetica, Arial, sans-serif" xml:space="preserve">since: </text><text class="speech-bubble-content property-value" x="5.7050018310546875" y="23" alignment-baseline="central" font-size="14px" font-family="&quot;Helvetica Neue&quot;, Helvetica, Arial, sans-serif">Date</text></g><g class="speech-bubble relationship-speech-bubble" transform="translate(280.32489235365614,-171.23020629882814) "><path class="speech-bubble-outline" transform="scale(1,1) " d="M 0 0 L -4 12 L -35.3919677734375 12 A 4 4 0 0 0 -39.3919677734375 16 L -39.3919677734375 30 A 4 4 0 0 0 -35.3919677734375 34 L 35.3919677734375 34 A 4 4 0 0 0 39.3919677734375 30 L 39.3919677734375 16 A 4 4 0 0 0 35.3919677734375 12 L 4 12 Z" fill="rgb(255, 255, 255)" stroke="rgba(0, 0, 0, 0.5)" stroke-width="1px"/><text class="speech-bubble-content property-key" x="6.0900115966796875" y="23" alignment-baseline="central" text-anchor="end" font-size="14px" font-family="&quot;Helvetica Neue&quot;, Helvetica, Arial, sans-serif" xml:space="preserve">when: </text><text class="speech-bubble-content property-value" x="6.0900115966796875" y="23" alignment-baseline="central" font-size="14px" font-family="&quot;Helvetica Neue&quot;, Helvetica, Arial, sans-serif">Date</text></g><g class="speech-bubble relationship-speech-bubble" transform="translate(5.6909568136839255,-171.23020629882814) "><path class="speech-bubble-outline" transform="scale(1,1) " d="M 0 0 L -4 12 L -35.3919677734375 12 A 4 4 0 0 0 -39.3919677734375 16 L -39.3919677734375 30 A 4 4 0 0 0 -35.3919677734375 34 L 35.3919677734375 34 A 4 4 0 0 0 39.3919677734375 30 L 39.3919677734375 16 A 4 4 0 0 0 35.3919677734375 12 L 4 12 Z" fill="rgb(255, 255, 255)" stroke="rgba(0, 0, 0, 0.5)" stroke-width="1px"/><text class="speech-bubble-content property-key" x="6.0900115966796875" y="23" alignment-baseline="central" text-anchor="end" font-size="14px" font-family="&quot;Helvetica Neue&quot;, Helvetica, Arial, sans-serif" xml:space="preserve">when: </text><text class="speech-bubble-content property-value" x="6.0900115966796875" y="23" alignment-baseline="central" font-size="14px" font-family="&quot;Helvetica Neue&quot;, Helvetica, Arial, sans-serif">Date</text></g></g><g class="layer overlay"><circle class="node overlay" r="39.16413572751177" stroke="none" fill="rgba(255, 255, 255, 0)" cx="-126.4894787597656" cy="-559.0699999999999"/><circle class="node overlay" r="34.10853302450297" stroke="none" fill="rgba(255, 255, 255, 0)" cx="139.86600097656247" cy="-559.0699999999999"/><circle class="node overlay" r="29.234513523587385" stroke="none" fill="rgba(255, 255, 255, 0)" cx="412.5299999999998" cy="-171.23020629882814"/><circle class="node overlay" r="35.49368866490828" stroke="none" fill="rgba(255, 255, 255, 0)" cx="412.5299999999998" cy="-559.0699999999999"/><circle class="node overlay" r="29.4882972543373" stroke="none" fill="rgba(255, 255, 255, 0)" cx="139.86600097656247" cy="-171.23020629882814"/><circle class="node overlay" r="21.079211093446062" stroke="none" fill="rgba(255, 255, 255, 0)" cx="412.5299999999998" cy="49.73979370117186"/><circle class="node overlay" r="35.49368866490828" stroke="none" fill="rgba(255, 255, 255, 0)" cx="-126.4894787597656" cy="-171.23020629882814"/><circle class="node overlay" r="21.765260206848925" stroke="none" fill="rgba(255, 255, 255, 0)" cx="139.86600097656247" cy="49.73979370117186"/><circle class="node ring" r="44.16413572751177" fill="none" stroke="rgba(255, 255, 255, 0)" stroke-width="10px" cx="-126.4894787597656" cy="-559.0699999999999"/><circle class="node ring" r="39.10853302450297" fill="none" stroke="rgba(255, 255, 255, 0)" stroke-width="10px" cx="139.86600097656247" cy="-559.0699999999999"/><circle class="node ring" r="34.23451352358738" fill="none" stroke="rgba(255, 255, 255, 0)" stroke-width="10px" cx="412.5299999999998" cy="-171.23020629882814"/><circle class="node ring" r="40.49368866490828" fill="none" stroke="rgba(255, 255, 255, 0)" stroke-width="10px" cx="412.5299999999998" cy="-559.0699999999999"/><circle class="node ring" r="34.4882972543373" fill="none" stroke="rgba(255, 255, 255, 0)" stroke-width="10px" cx="139.86600097656247" cy="-171.23020629882814"/><circle class="node ring" r="26.079211093446062" fill="none" stroke="rgba(255, 255, 255, 0)" stroke-width="10px" cx="412.5299999999998" cy="49.73979370117186"/><circle class="node ring" r="40.49368866490828" fill="none" stroke="rgba(255, 255, 255, 0)" stroke-width="10px" cx="-126.4894787597656" cy="-171.23020629882814"/><circle class="node ring" r="26.765260206848925" fill="none" stroke="rgba(255, 255, 255, 0)" stroke-width="10px" cx="139.86600097656247" cy="49.73979370117186"/><path class="relationship overlay" fill="rgba(255, 255, 255, 0)" stroke="rgba(255, 255, 255, 0)" stroke-width="10px" transform="translate(412.5299999999998,-559.0699999999999) rotate(90)" d="M 40.06222807296684,-5.979690921787534 L 40.30855309649261,-3.99491789124096 A 1245.7173709456438 1245.7173709456438 0 0 1 345.7990616266551,-4.163049268596786 L 345.4328513648626,-1.1854848202333526 L 353.86130357622176,-4.179010053271133 L 346.409412062976,-9.12565668253584 L 346.0432018011835,-6.148092234172407 A 1247.7173709456438 1247.7173709456438 0 0 0 40.06222807296684,-5.979690921787534"/><path class="relationship overlay" fill="rgba(255, 255, 255, 0)" stroke="rgba(255, 255, 255, 0)" stroke-width="10px" transform="translate(412.5299999999998,-171.23020629882814) rotate(-90)" d="M 33.72450075352613,-5.971596530418202 L 34.015566265129024,-3.9928896628010335 A 1088.30175305352 1088.30175305352 0 0 1 339.6567739859993,-5.570857335844376 L 339.25084524231505,-2.5984472270183807 L 347.71851052409664,-5.479184055628495 L 340.3333218921396,-10.5248741838877 L 339.9273931484554,-7.552464075061706 A 1090.30175305352 1090.30175305352 0 0 0 33.72450075352613,-5.971596530418202"/><path class="relationship overlay" fill="rgba(255, 255, 255, 0)" stroke="rgba(255, 255, 255, 0)" stroke-width="10px" transform="translate(-126.4894787597656,-559.0699999999999) rotate(0)" d="M 44.16413572751177 1 L 219.24694671182507 1 L 219.24694671182507 4 L 227.24694671182507 0 L 219.24694671182507 -4 L 219.24694671182507 -1 L 44.16413572751177 -1 Z"/><path class="relationship overlay" fill="rgba(255, 255, 255, 0)" stroke="rgba(255, 255, 255, 0)" stroke-width="10px" transform="translate(412.5299999999998,-559.0699999999999) rotate(180)" d="M 40.49368866490828 1 L 225.5554659989343 1 L 225.5554659989343 4 L 233.5554659989343 0 L 225.5554659989343 -4 L 225.5554659989343 -1 L 40.49368866490828 -1 Z"/><path class="relationship overlay" fill="rgba(255, 255, 255, 0)" stroke="rgba(255, 255, 255, 0)" stroke-width="10px" transform="translate(139.86600097656247,-559.0699999999999) rotate(90)" d="M 39.10853302450297 1 L 345.3514964468346 1 L 345.3514964468346 4 L 353.3514964468346 0 L 345.3514964468346 -4 L 345.3514964468346 -1 L 39.10853302450297 -1 Z"/><path class="relationship overlay" fill="rgba(255, 255, 255, 0)" stroke="rgba(255, 255, 255, 0)" stroke-width="10px" transform="translate(412.5299999999998,-171.23020629882814) rotate(180)" d="M 34.23451352358738 1 L 230.1757017691 1 L 230.1757017691 4 L 238.1757017691 0 L 230.1757017691 -4 L 230.1757017691 -1 L 34.23451352358738 -1 Z"/><path class="relationship overlay" fill="rgba(255, 255, 255, 0)" stroke="rgba(255, 255, 255, 0)" stroke-width="10px" transform="translate(412.5299999999998,-171.23020629882814) rotate(90)" d="M 34.23451352358738 1 L 186.89078890655395 1 L 186.89078890655395 4 L 194.89078890655395 0 L 186.89078890655395 -4 L 186.89078890655395 -1 L 34.23451352358738 -1 Z"/><path class="relationship overlay" fill="rgba(255, 255, 255, 0)" stroke="rgba(255, 255, 255, 0)" stroke-width="10px" transform="translate(-126.4894787597656,-559.0699999999999) rotate(90)" d="M 44.16413572751177 1 L 339.34610503626357 1 L 339.34610503626357 4 L 347.34610503626357 0 L 339.34610503626357 -4 L 339.34610503626357 -1 L 44.16413572751177 -1 Z"/><path class="relationship overlay" fill="rgba(255, 255, 255, 0)" stroke="rgba(255, 255, 255, 0)" stroke-width="10px" transform="translate(-126.4894787597656,-171.23020629882814) rotate(0)" d="M 40.49368866490828 1 L 223.86718248199077 1 L 223.86718248199077 4 L 231.86718248199077 0 L 223.86718248199077 -4 L 223.86718248199077 -1 L 40.49368866490828 -1 Z"/><path class="relationship overlay" fill="rgba(255, 255, 255, 0)" stroke="rgba(255, 255, 255, 0)" stroke-width="10px" transform="translate(412.5299999999998,-171.23020629882814) rotate(140.9782988547152)" d="M 34.23451352358738 1 L 316.1954174529895 1 L 316.1954174529895 4 L 324.1954174529895 0 L 316.1954174529895 -4 L 316.1954174529895 -1 L 34.23451352358738 -1 Z"/><path class="relationship overlay" fill="rgba(255, 255, 255, 0)" stroke="rgba(255, 255, 255, 0)" stroke-width="10px" transform="translate(-126.4894787597656,-171.23020629882814) rotate(39.679290881107455)" d="M 40.49368866490828 1 L 311.3170746291976 1 L 311.3170746291976 4 L 319.3170746291976 0 L 311.3170746291976 -4 L 311.3170746291976 -1 L 40.49368866490828 -1 Z"/></g></svg>